<?xml version="1.0" encoding="UTF-8" standalone="no"?>
<!-- Created with Inkscape (http://www.inkscape.org/) -->

<svg
   xmlns="http://www.w3.org/2000/svg"
   width="250.11978"
   height="129.97469"
>
  <g
     transform="translate(-339.51327,-422.56309)">
    <path
       style="fill:none;stroke:#ffffff;stroke-width:0.5;"
       d="M 547.44361,520.56931 L 544.76237,523.55655 L 541.45844,528.15324 L 539.80393,529.96317 L 536.99259,524.94744 L 538.95278,522.91219 L 537.28205,521.23534 L 539.69145,518.41153 L 541.50723,519.99313 L 545.6324,516.49822 L 547.44361,520.56931"
        />
    <path
       style="fill:none;stroke:#ffffff;stroke-width:0.5;"
       d="M 537.44246,495.60386 L 542.18473,498.30058 L 544.13397,503.96628 L 547.25903,506.46658 L 547.4738,506.62724 L 555.94617,515.08958 L 547.44361,520.56931 L 545.6324,516.49822 L 527.76795,504.69887 L 532.60666,498.64498 L 537.15816,494.81897 L 537.44246,495.60386"
        />
    <path
       style="fill:none;stroke:#ffffff;stroke-width:0.5;"
       d="M 349.36039,537.00782 L 357.06929,533.99559 L 357.48155,533.99784 L 361.38966,534.47865 L 368.00439,535.36076 L 371.42261,547.6903 L 353.25888,548.33919 L 349.72721,548.44533 L 349.36039,537.00782"
       />
    <path
       style="fill:none;stroke:#ffffff;stroke-width:0.5;"
       d="M 372.05081,528.37828 L 376.8034,528.11847 L 385.34332,527.14861 L 386.22709,527.00984 L 387.07787,527.3493 L 387.41546,527.58492 L 393.11469,531.58536 L 391.90152,533.88022 L 389.65597,538.38303 L 389.07869,540.63198 L 389.58879,546.2608 L 390.27593,546.86622 L 387.23241,547.01399 L 376.89122,547.47606 L 371.42261,547.6903 L 368.00439,535.36076 L 372.05081,528.37828"
       />
    <path
       style="fill:none;stroke:#ffffff;stroke-width:0.5;"
       d="M 354.18126,512.38636 L 360.75348,519.03876 L 368.51508,523.52211 L 372.15756,525.02175 L 372.05081,528.37828 L 368.00439,535.36076 L 361.38966,534.47865 L 357.48155,533.99784 L 357.06929,533.99559 L 349.36039,537.00782 L 349.06008,527.65652 L 348.70821,516.302 L 348.56415,512.58118 L 354.18126,512.38636"
       />
    <path
       style="fill:none;stroke:#ffffff;stroke-width:0.5;"
       d="M 377.57152,502.37477 L 377.58222,502.40564 L 377.63277,513.10567 L 377.63219,513.87176 L 377.56838,514.10656 L 374.47627,523.28749 L 374.042,524.07433 L 372.15756,525.02175 L 368.51508,523.52211 L 360.75348,519.03876 L 354.18126,512.38636 L 358.73665,507.68417 L 361.62294,505.63724 L 361.38269,502.76583 L 377.57152,502.37477"
      />
    <path
       style="fill:none;stroke:#ffffff;stroke-width:0.5;"
       d="M 347.97676,494.84911 L 360.72182,494.22941 L 361.38269,502.76583 L 361.62294,505.63724 L 358.73665,507.68417 L 354.18126,512.38636 L 348.56415,512.58118 L 348.30391,504.92589 L 347.97676,494.84911"
       />
    <path
       style="fill:none;stroke:#ffffff;stroke-width:0.5;"
       d="M 362.52499,483.97404 L 360.72182,494.22941 L 347.97676,494.84911 L 347.85707,492.54966 L 347.53914,481.8663 L 356.73267,481.42014 L 360.63101,481.94757 L 362.52499,483.97404"
      />
    <path
       style="fill:none;stroke:#ffffff;stroke-width:0.5;"
       d="M 376.65879,478.61439 L 377.57152,502.37477 L 361.38269,502.76583 L 360.72182,494.22941 L 362.52499,483.97404 L 365.76394,479.0005 L 376.5067,478.50981 L 376.65879,478.61439"
       />
    <path
       style="fill:none;stroke:#ffffff;stroke-width:0.5;"
       d="M 393.67286,483.55441 L 393.97874,490.1548 L 394.28055,496.58889 L 388.99086,504.82721 L 386.48416,508.62183 L 377.58222,502.40564 L 377.57152,502.37477 L 376.65879,478.61439 L 377.14197,481.8822 L 377.20255,482.32109 L 377.76823,484.33619 L 381.22739,487.21166 L 381.94796,487.41992 L 382.9838,487.63989 L 383.66125,487.52945 L 386.29256,486.95581 L 390.24608,485.93228 L 393.67286,483.55441"
      />
    <path
       style="fill:none;stroke:#ffffff;stroke-width:0.5;"
       d="M 383.71486,468.0761 L 386.43162,467.94827 L 386.34028,465.60097 L 387.81266,465.52431 L 393.12283,465.5362 L 393.27386,470.21932 L 393.67286,483.55441 L 390.24608,485.93228 L 386.29256,486.95581 L 383.66125,487.52945 L 382.9838,487.63989 L 381.94796,487.41992 L 381.22739,487.21166 L 377.76823,484.33619 L 377.20255,482.32109 L 377.14197,481.8822 L 376.65879,478.61439 L 376.5067,478.50981 L 377.92336,474.62813 L 378.66632,473.48009 L 379.45004,472.58417 L 381.23217,471.29185 L 381.6024,471.27757 L 383.79548,470.47727 L 383.71486,468.0761"
       />
    <path
       style="fill:none;stroke:#ffffff;stroke-width:0.5;"
       d="M 382.00587,456.84643 L 401.47744,455.97047 L 401.6832,462.40677 L 401.15574,464.16127 L 398.10767,464.23108 L 397.11147,465.71074 L 397.25723,469.61595 L 393.27386,470.21932 L 393.12283,465.5362 L 387.81266,465.52431 L 386.34028,465.60097 L 386.43162,467.94827 L 383.71486,468.0761 L 383.58072,465.5206 L 382.29016,462.42733 L 382.00587,456.84643"
       />
    <path
       style="fill:none;stroke:#ffffff;stroke-width:0.5;"
       d="M 382.00587,456.84643 L 382.29016,462.42733 L 383.58072,465.5206 L 383.71486,468.0761 L 383.79548,470.47727 L 381.6024,471.27757 L 381.23217,471.29185 L 379.45004,472.58417 L 378.66632,473.48009 L 377.92336,474.62813 L 376.5067,478.50981 L 365.76394,479.0005 L 365.17699,463.91697 L 366.59236,462.75358 L 370.94709,458.37513 L 378.50282,457.35414 L 378.47781,457.03777 L 382.00587,456.84643"
       />
    <path
       style="fill:none;stroke:#ffffff;stroke-width:0.5;"
       d="M 346.95768,464.62491 L 365.17699,463.91697 L 365.76394,479.0005 L 362.52499,483.97404 L 360.63101,481.94757 L 356.73267,481.42014 L 347.53914,481.8663 L 347.52674,481.4816 L 346.95768,464.62491"
       />
    <path
       style="fill:none;stroke:#ffffff;stroke-width:0.5;"
       d="M 378.04995,446.32163 L 378.47781,457.03777 L 378.50282,457.35414 L 370.94709,458.37513 L 366.59236,462.75358 L 365.17699,463.91697 L 346.95768,464.62491 L 346.93696,464.1065 L 346.39713,447.5336 L 367.65618,446.70685 L 375.59621,446.3254 L 378.04995,446.32163"
       />
    <path
       style="fill:none;stroke:#ffffff;stroke-width:0.5;"
       d="M 377.82776,439.24962 L 378.04995,446.32163 L 375.59621,446.3254 L 367.65618,446.70685 L 346.39713,447.5336 L 346.20015,441.48153 L 352.6957,438.48032 L 361.4663,432.95086 L 368.40532,428.64094 L 372.01662,426.65553 L 372.05408,427.9202 L 372.27604,433.2167 L 372.55299,439.47441 L 377.29345,439.27931 L 377.82776,439.24962"
       />
    <path
       style="fill:none;stroke:#ffffff;stroke-width:0.5;"
       d="M 386.48416,508.62183 L 386.16158,509.20223 L 386.4519,510.78725 L 386.52795,510.88189 L 388.73526,512.11678 L 397.25089,513.7591 L 403.68914,514.18718 L 401.06177,519.58314 L 393.11469,531.58536 L 387.41546,527.58492 L 387.07787,527.3493 L 386.22709,527.00984 L 385.34332,527.14861 L 376.8034,528.11847 L 372.05081,528.37828 L 372.15756,525.02175 L 374.042,524.07433 L 374.47627,523.28749 L 377.56838,514.10656 L 377.63219,513.87176 L 377.63277,513.10567 L 377.58222,502.40564 L 386.48416,508.62183"
       />
    <path
       style="fill:none;stroke:#ffffff;stroke-width:0.5;"
       d="M 393.97874,490.1548 L 408.49519,489.70745 L 409.04614,498.29582 L 403.68914,514.18718 L 397.25089,513.7591 L 388.73526,512.11678 L 386.52795,510.88189 L 386.4519,510.78725 L 386.16158,509.20223 L 386.48416,508.62183 L 388.99086,504.82721 L 394.28055,496.58889 L 393.97874,490.1548"
      />
    <path
       style="fill:none;stroke:#ffffff;stroke-width:0.5;"
       d="M 393.27386,470.21932 L 397.25723,469.61595 L 398.03225,468.98411 L 401.98396,468.36923 L 410.09046,472.66556 L 411.05399,474.1727 L 411.12767,475.52682 L 409.14255,475.58074 L 408.1808,478.37623 L 408.14945,478.47529 L 408.0129,479.83143 L 408.49519,489.70745 L 393.97874,490.1548 L 393.67286,483.55441 L 393.27386,470.21932"
        />
    <path
       style="fill:none;stroke:#ffffff;stroke-width:0.5;"
       d="M 396.93415,438.37755 L 401.89066,438.19223 L 402.111,440.31327 L 402.36366,445.62851 L 402.20612,446.10155 L 401.24569,446.17873 L 401.47744,455.97047 L 382.00587,456.84643 L 378.47781,457.03777 L 378.04995,446.32163 L 377.82776,439.24962 L 396.93415,438.37755"
      />
    <path
       style="fill:none;stroke:#ffffff;stroke-width:0.5;"
       d="M 423.15306,437.00125 L 426.67909,436.76912 L 427.82419,454.8282 L 420.3179,456.00668 L 417.99705,454.82327 L 413.23722,455.16688 L 411.39789,455.4019 L 405.95051,455.79203 L 401.47744,455.97047 L 401.24569,446.17873 L 402.20612,446.10155 L 402.36366,445.62851 L 402.111,440.31327 L 401.89066,438.19223 L 403.42776,438.12772 L 413.09829,437.5265 L 423.15306,437.00125"
        />
    <path
       style="fill:none;stroke:#ffffff;stroke-width:0.5;"
       d="M 420.3179,456.00668 L 427.82419,454.8282 L 435.72601,461.17165 L 432.79456,473.60774 L 427.69828,473.25543 L 427.51998,468.83763 L 426.63926,465.0317 L 420.80718,465.34949 L 420.3179,456.00668"
       />
    <path
       style="fill:none;stroke:#ffffff;stroke-width:0.5;"
       d="M 401.47744,455.97047 L 405.95051,455.79203 L 411.39789,455.4019 L 413.23722,455.16688 L 417.99705,454.82327 L 420.3179,456.00668 L 420.80718,465.34949 L 426.63926,465.0317 L 427.51998,468.83763 L 427.69828,473.25543 L 416.39895,473.04355 L 413.24992,473.26595 L 411.12767,475.52682 L 411.05399,474.1727 L 410.09046,472.66556 L 401.98396,468.36923 L 398.03225,468.98411 L 397.25723,469.61595 L 397.11147,465.71074 L 398.10767,464.23108 L 401.15574,464.16127 L 401.6832,462.40677 L 401.47744,455.97047"
       />
    <path
       style="fill:none;stroke:#ffffff;stroke-width:0.5;"
       d="M 427.69828,473.25543 L 432.79456,473.60774 L 434.9122,476.48854 L 434.53053,482.06352 L 434.43195,483.18519 L 433.63255,486.03504 L 433.42041,486.22099 L 431.35964,486.76967 L 429.50209,488.01898 L 429.0537,488.40614 L 424.05306,496.06704 L 424.08027,496.2253 L 424.59084,497.05447 L 425.04999,497.43121 L 409.04614,498.29582 L 408.49519,489.70745 L 408.0129,479.83143 L 408.14945,478.47529 L 408.1808,478.37623 L 409.14255,475.58074 L 411.12767,475.52682 L 413.24992,473.26595 L 416.39895,473.04355 L 427.69828,473.25543"
      />
    <path
       style="fill:none;stroke:#ffffff;stroke-width:0.5;"
       d="M 424.59084,497.05447 L 433.32002,496.27142 L 430.40711,498.38118 L 429.9387,499.03463 L 429.73786,499.55725 L 430.95914,504.95845 L 432.72185,506.46682 L 433.53309,508.15297 L 433.52359,508.47958 L 433.39708,508.91246 L 432.74729,510.58836 L 429.50604,517.46968 L 429.10052,518.71336 L 428.5596,520.03513 L 422.96013,518.90986 L 416.48353,516.80075 L 425.04999,497.43121 L 424.59084,497.05447"
       />
    <path
       style="fill:none;stroke:#ffffff;stroke-width:0.5;"
       d="M 409.04614,498.29582 L 425.04999,497.43121 L 416.48353,516.80075 L 415.33957,520.85066 L 412.07938,521.0217 L 407.41515,521.11257 L 406.84572,520.02893 L 405.68821,519.35842 L 401.06177,519.58314 L 403.68914,514.18718 L 409.04614,498.29582"
       />
    <path
       style="fill:none;stroke:#ffffff;stroke-width:0.5;"
       d="M 415.33957,520.85066 L 412.86439,529.22809 L 412.83198,540.93025 L 412.55417,542.26795 L 411.24951,545.79961 L 390.27593,546.86622 L 389.58879,546.2608 L 389.07869,540.63198 L 389.65597,538.38303 L 391.90152,533.88022 L 393.11469,531.58536 L 401.06177,519.58314 L 405.68821,519.35842 L 406.84572,520.02893 L 407.41515,521.11257 L 412.07938,521.0217 L 415.33957,520.85066"
       />
    <path
       style="fill:none;stroke:#ffffff;stroke-width:0.5;"
       d="M 416.48353,516.80075 L 422.96013,518.90986 L 428.5596,520.03513 L 429.10052,518.71336 L 429.50604,517.46968 L 434.24723,523.5036 L 433.50951,525.599 L 431.49343,532.29404 L 429.27959,539.9394 L 427.89453,542.93013 L 426.62739,544.98955 L 411.24951,545.79961 L 412.55417,542.26795 L 412.83198,540.93025 L 412.86439,529.22809 L 415.33957,520.85066 L 416.48353,516.80075"
       />
    <path
       style="fill:none;stroke:#ffffff;stroke-width:0.5;"
       d="M 434.24723,523.5036 L 436.38743,524.9139 L 441.88484,526.05899 L 444.19427,527.83765 L 443.78417,528.18563 L 443.54051,528.50006 L 442.38986,530.71098 L 441.89615,533.33554 L 440.54004,537.74084 L 439.88663,539.33154 L 437.79647,543.01112 L 436.7472,544.41753 L 427.98514,544.91634 L 426.62739,544.98955 L 427.89453,542.93013 L 429.27959,539.9394 L 431.49343,532.29404 L 433.50951,525.599 L 434.24723,523.5036"
       />
    <path
       style="fill:none;stroke:#ffffff;stroke-width:0.5;"
       d="M 433.32002,496.27142 L 439.53416,498.16208 L 447.74899,496.57882 L 448.74148,495.77646 L 448.35789,496.8241 L 445.81746,500.90532 L 444.53256,502.73405 L 443.93936,503.83534 L 443.58242,504.6507 L 441.63027,511.33565 L 443.27075,513.15957 L 443.61526,513.45504 L 444.54545,513.44021 L 446.94872,513.06149 L 447.28405,512.55273 L 449.35553,517.90286 L 444.19427,527.83765 L 441.88484,526.05899 L 436.38743,524.9139 L 434.24723,523.5036 L 429.50604,517.46968 L 432.74729,510.58836 L 433.39708,508.91246 L 433.52359,508.47958 L 433.53309,508.15297 L 432.72185,506.46682 L 430.95914,504.95845 L 429.73786,499.55725 L 429.9387,499.03463 L 430.40711,498.38118 L 433.32002,496.27142"
       />
    <path
       style="fill:none;stroke:#ffffff;stroke-width:0.5;"
       d="M 449.35553,517.90286 L 450.39518,516.59832 L 452.73643,520.75705 L 452.28362,521.29098 L 453.03629,522.91794 L 457.55157,529.66645 L 458.59351,532.49149 L 459.7319,543.09781 L 459.38246,543.12217 L 436.7472,544.41753 L 437.79647,543.01112 L 439.88663,539.33154 L 440.54004,537.74084 L 441.89615,533.33554 L 442.38986,530.71098 L 443.54051,528.50006 L 443.78417,528.18563 L 444.19427,527.83765 L 449.35553,517.90286"
       />
    <path
       style="fill:none;stroke:#ffffff;stroke-width:0.5;"
       d="M 459.62563,489.49158 L 459.99593,491.36698 L 462.77935,496.59641 L 460.66545,497.66491 L 459.4484,498.35322 L 457.08358,499.90466 L 455.78066,500.8838 L 451.83277,505.84213 L 447.28405,512.55273 L 446.94872,513.06149 L 444.54545,513.44021 L 443.61526,513.45504 L 443.27075,513.15957 L 441.63027,511.33565 L 443.58242,504.6507 L 443.93936,503.83534 L 444.53256,502.73405 L 445.81746,500.90532 L 448.35789,496.8241 L 448.74148,495.77646 L 459.62563,489.49158"
       />
    <path
       style="fill:none;stroke:#ffffff;stroke-width:0.5;"
       d="M 447.44702,435.52832 L 449.17478,457.13708 L 449.42509,460.15714 L 435.72601,461.17165 L 427.82419,454.8282 L 426.67909,436.76912 L 442.56985,435.86766 L 447.44702,435.52832"
       />
    <path
       style="fill:none;stroke:#ffffff;stroke-width:0.5;"
       d="M 449.42509,460.15714 L 449.56359,461.91756 L 451.67527,464.56181 L 455.3525,468.81393 L 465.95549,478.5343 L 466.65578,478.47471 L 466.75435,479.66632 L 459.98825,482.76482 L 454.13695,484.35831 L 451.36576,480.53023 L 450.96782,479.40266 L 449.76468,478.54569 L 438.27244,473.60469 L 434.9122,476.48854 L 432.79456,473.60774 L 435.72601,461.17165 L 449.42509,460.15714"
       />
    <path
       style="fill:none;stroke:#ffffff;stroke-width:0.5;"
       d="M 434.9122,476.48854 L 438.27244,473.60469 L 449.76468,478.54569 L 450.96782,479.40266 L 451.36576,480.53023 L 454.13695,484.35831 L 459.98825,482.76482 L 466.75435,479.66632 L 464.78528,482.24926 L 462.47508,486.23162 L 459.62563,489.49158 L 448.74148,495.77646 L 447.74899,496.57882 L 439.53416,498.16208 L 433.32002,496.27142 L 424.59084,497.05447 L 424.08027,496.2253 L 424.05306,496.06704 L 429.0537,488.40614 L 429.50209,488.01898 L 431.35964,486.76967 L 433.42041,486.22099 L 433.63255,486.03504 L 434.43195,483.18519 L 434.53053,482.06352 L 434.9122,476.48854"
     />
    <path
       style="fill:none;stroke:#ffffff;stroke-width:0.5;"
       d="M 466.65578,478.47471 L 472.44105,477.18939 L 472.86993,474.24328 L 475.1394,474.55065 L 475.74302,476.67017 L 476.34292,481.94971 L 476.22287,482.53076 L 476.52383,483.41361 L 477.46972,485.08421 L 478.52607,486.10619 L 479.41071,486.4685 L 478.26023,486.25198 L 474.40823,486.52626 L 469.64023,487.86337 L 461.50413,490.70563 L 459.99593,491.36698 L 459.62563,489.49158 L 462.47508,486.23162 L 464.78528,482.24926 L 466.75435,479.66632 L 466.65578,478.47471"
   />
    <path
       style="fill:none;stroke:#ffffff;stroke-width:0.5;"
       d="M 480.79438,472.57053 L 484.09322,473.11914 L 485.24057,476.8015 L 486.94524,477.73869 L 489.13844,482.04384 L 489.35331,482.68337 L 489.0222,485.72698 L 485.76369,482.69722 L 485.06931,482.17557 L 484.0226,482.03891 L 481.49724,482.87319 L 479.44654,483.40109 L 479.37964,483.29289 L 480.35519,478.47322 L 480.79438,472.57053"
     />
    <path
       style="fill:none;stroke:#ffffff;stroke-width:0.5;"
       d="M 471.17774,433.82713 L 474.37303,452.85746 L 474.16306,453.22418 L 471.52039,455.21083 L 463.42976,456.04043 L 449.17478,457.13708 L 447.44702,435.52832 L 469.83242,433.94616 L 471.17774,433.82713"
      />
    <path
       style="fill:none;stroke:#ffffff;stroke-width:0.5;"
       d="M 474.37303,452.85746 L 476.52788,452.99884 L 479.34946,461.519 L 485.26516,465.94921 L 486.85307,466.37019 L 490.44589,466.92403 L 484.09322,473.11914 L 480.79438,472.57053 L 475.1394,474.55065 L 472.86993,474.24328 L 472.44105,477.18939 L 466.65578,478.47471 L 465.95549,478.5343 L 455.3525,468.81393 L 451.67527,464.56181 L 449.56359,461.91756 L 449.42509,460.15714 L 449.17478,457.13708 L 463.42976,456.04043 L 471.52039,455.21083 L 474.16306,453.22418 L 474.37303,452.85746"
     />
    <path
       style="fill:none;stroke:#ffffff;stroke-width:0.5;"
       d="M 500.69267,448.22698 L 500.75435,448.62917 L 509.34998,447.90972 L 514.50714,447.57009 L 514.21451,447.89288 L 512.88629,450.92785 L 512.1156,453.41677 L 513.26316,454.16336 L 511.37848,458.04657 L 510.82538,458.36113 L 505.41965,460.57637 L 495.86197,461.6675 L 497.45319,453.71245 L 500.69267,448.22698"
      />
    <path
       style="fill:none;stroke:#ffffff;stroke-width:0.5;"
       d="M 476.52788,452.99884 L 497.45319,453.71245 L 495.86197,461.6675 L 495.12926,464.99387 L 490.44589,466.92403 L 486.85307,466.37019 L 485.26516,465.94921 L 479.34946,461.519 L 476.52788,452.99884"
      />
    <path
       style="fill:none;stroke:#ffffff;stroke-width:0.5;"
       d="M 495.12926,464.99387 L 495.15002,468.81276 L 495.2368,469.92549 L 496.95502,473.26982 L 500.07613,481.69649 L 498.74069,483.40443 L 497.61186,485.02517 L 497.11593,488.96445 L 494.63758,490.39792 L 489.0222,485.72698 L 489.35331,482.68337 L 489.13844,482.04384 L 486.94524,477.73869 L 485.24057,476.8015 L 484.09322,473.11914 L 490.44589,466.92403 L 495.12926,464.99387"
     />
    <path
       style="fill:none;stroke:#ffffff;stroke-width:0.5;"
       d="M 475.1394,474.55065 L 480.79438,472.57053 L 480.35519,478.47322 L 479.37964,483.29289 L 479.44654,483.40109 L 481.49724,482.87319 L 484.0226,482.03891 L 485.06931,482.17557 L 485.76369,482.69722 L 489.0222,485.72698 L 494.63758,490.39792 L 483.67294,496.81966 L 482.14651,497.08448 L 477.76231,499.23421 L 476.06012,499.66026 L 475.88863,499.70416 L 475.49622,499.54979 L 475.00799,498.85983 L 475.3271,498.33423 L 475.64491,498.04421 L 477.24782,495.896 L 477.5907,495.3293 L 477.83504,494.72763 L 478.00663,493.92123 L 477.87545,492.64063 L 478.78888,488.57904 L 479.41071,486.4685 L 478.52607,486.10619 L 477.46972,485.08421 L 476.52383,483.41361 L 476.22287,482.53076 L 476.34292,481.94971 L 475.74302,476.67017 L 475.1394,474.55065"
    />
    <path
       style="fill:none;stroke:#ffffff;stroke-width:0.5;"
       d="M 479.41071,486.4685 L 478.78888,488.57904 L 477.87545,492.64063 L 478.00663,493.92123 L 477.83504,494.72763 L 477.5907,495.3293 L 477.24782,495.896 L 475.64491,498.04421 L 475.3271,498.33423 L 475.25613,497.97503 L 475.07821,497.78603 L 471.57173,496.68356 L 469.13615,496.26609 L 467.67108,496.90729 L 462.77935,496.59641 L 459.99593,491.36698 L 461.50413,490.70563 L 469.64023,487.86337 L 474.40823,486.52626 L 478.26023,486.25198 L 479.41071,486.4685"
        />
    <path
       style="fill:none;stroke:#ffffff;stroke-width:0.5;"
       d="M 475.3271,498.33423 L 475.00799,498.85983 L 467.39082,502.49551 L 463.27808,504.87959 L 457.71937,508.80247 L 454.74234,511.1212 L 451.12963,515.51548 L 450.39518,516.59832 L 449.35553,517.90286 L 447.28405,512.55273 L 451.83277,505.84213 L 455.78066,500.8838 L 457.08358,499.90466 L 459.4484,498.35322 L 460.66545,497.66491 L 462.77935,496.59641 L 467.67108,496.90729 L 469.13615,496.26609 L 471.57173,496.68356 L 475.07821,497.78603 L 475.25613,497.97503 L 475.3271,498.33423"
     />
    <path
       style="fill:none;stroke:#ffffff;stroke-width:0.5;"
       d="M 477.28082,512.93686 L 475.13794,514.00157 L 473.51118,514.3859 L 460.11811,517.51422 L 453.06955,521.39359 L 452.73643,520.75705 L 450.39518,516.59832 L 451.12963,515.51548 L 454.74234,511.1212 L 457.71937,508.80247 L 463.27808,504.87959 L 467.39082,502.49551 L 475.00799,498.85983 L 474.44884,500.94171 L 472.95805,510.32805 L 472.96935,510.49528 L 473.32481,511.44049 L 473.81403,511.78432 L 477.28082,512.93686"
 />
    <path
       style="fill:none;stroke:#ffffff;stroke-width:0.5;"
       d="M 477.28082,512.93686 L 479.59364,517.65177 L 477.75661,519.61837 L 472.992,522.65036 L 470.161,525.76907 L 469.1064,526.99061 L 467.69609,527.97416 L 465.11941,528.66543 L 460.88021,529.98687 L 458.59351,532.49149 L 457.55157,529.66645 L 453.03629,522.91794 L 452.28362,521.29098 L 452.73643,520.75705 L 453.06955,521.39359 L 460.11811,517.51422 L 473.51118,514.3859 L 475.13794,514.00157 L 477.28082,512.93686"
        />
    <path
       style="fill:none;stroke:#ffffff;stroke-width:0.5;"
       d="M 470.161,525.76907 L 470.56601,525.8551 L 471.84099,526.41572 L 474.56947,528.11648 L 476.70859,531.70733 L 476.78645,532.38053 L 476.75545,534.64924 L 475.90844,536.67882 L 475.88337,536.87077 L 476.22914,541.98083 L 468.43364,542.52482 L 459.7319,543.09781 L 458.59351,532.49149 L 460.88021,529.98687 L 465.11941,528.66543 L 467.69609,527.97416 L 469.1064,526.99061 L 470.161,525.76907"
    />
    <path
       style="fill:none;stroke:#ffffff;stroke-width:0.5;"
       d="M 479.59364,517.65177 L 484.82619,522.32062 L 487.82981,524.98924 L 490.1065,525.38228 L 491.08331,525.37722 L 491.87268,525.6792 L 497.88776,532.39514 L 503.37054,539.35101 L 503.52734,539.67354 L 503.49754,539.90172 L 491.67242,540.81097 L 483.86353,541.40109 L 476.22914,541.98083 L 475.88337,536.87077 L 475.90844,536.67882 L 476.75545,534.64924 L 476.78645,532.38053 L 476.70859,531.70733 L 474.56947,528.11648 L 471.84099,526.41572 L 470.56601,525.8551 L 470.161,525.76907 L 472.992,522.65036 L 477.75661,519.61837 L 479.59364,517.65177"
       />
    <path
       style="fill:none;stroke:#ffffff;stroke-width:0.5;"
       d="M 483.67294,496.81966 L 489.93208,501.24313 L 485.15345,505.42625 L 489.99011,518.34618 L 490.11642,518.28164 L 484.82619,522.32062 L 479.59364,517.65177 L 477.28082,512.93686 L 473.81403,511.78432 L 473.32481,511.44049 L 472.96935,510.49528 L 472.95805,510.32805 L 474.44884,500.94171 L 475.00799,498.85983 L 475.49622,499.54979 L 475.88863,499.70416 L 476.06012,499.66026 L 477.76231,499.23421 L 482.14651,497.08448 L 483.67294,496.81966"
  />
    <path
       style="fill:none;stroke:#ffffff;stroke-width:0.5;"
       d="M 489.93208,501.24313 L 493.51756,503.79988 L 504.44458,511.51818 L 499.11759,514.82299 L 494.58157,515.99147 L 490.11642,518.28164 L 489.99011,518.34618 L 485.15345,505.42625 L 489.93208,501.24313"
    />
    <path
       style="fill:none;stroke:#ffffff;stroke-width:0.5;"
       d="M 504.44458,511.51818 L 515.02217,519.17608 L 512.64097,520.74012 L 511.43245,528.21838 L 511.40727,529.42699 L 511.47785,530.2687 L 511.77057,531.58143 L 511.08508,534.06674 L 510.25871,536.05113 L 509.63889,537.21524 L 507.2401,539.59104 L 503.73186,539.88443 L 503.49754,539.90172 L 503.52734,539.67354 L 503.37054,539.35101 L 497.88776,532.39514 L 491.87268,525.6792 L 491.08331,525.37722 L 490.1065,525.38228 L 487.82981,524.98924 L 484.82619,522.32062 L 490.11642,518.28164 L 494.58157,515.99147 L 499.11759,514.82299 L 504.44458,511.51818"
     />
    <path
       style="fill:none;stroke:#ffffff;stroke-width:0.5;"
       d="M 526.03355,503.48153 L 520.91651,513.69838 L 515.02217,519.17608 L 504.44458,511.51818 L 493.51756,503.79988 L 498.22148,502.50228 L 499.93922,502.2956 L 500.68869,502.02877 L 506.79434,498.91035 L 508.59008,497.20358 L 508.83279,495.73974 L 512.28772,493.68232 L 526.03355,503.48153"
      />
    <path
       style="fill:none;stroke:#ffffff;stroke-width:0.5;"
       d="M 500.07613,481.69649 L 507.6481,482.8362 L 516.79882,490.53251 L 512.28772,493.68232 L 508.83279,495.73974 L 508.59008,497.20358 L 506.79434,498.91035 L 500.68869,502.02877 L 499.93922,502.2956 L 498.22148,502.50228 L 493.51756,503.79988 L 489.93208,501.24313 L 483.67294,496.81966 L 494.63758,490.39792 L 497.11593,488.96445 L 497.61186,485.02517 L 498.74069,483.40443 L 500.07613,481.69649"
       />
    <path
       style="fill:none;stroke:#ffffff;stroke-width:0.5;"
       d="M 507.6481,482.8362 L 516.61708,477.56469 L 516.29486,476.59068 L 515.07099,475.30002 L 515.03616,474.29722 L 515.1036,473.89346 L 515.23246,473.69664 L 517.40444,471.70379 L 517.56035,471.60995 L 518.43215,471.42172 L 519.09583,471.92463 L 520.15665,472.46097 L 525.01606,477.8436 L 522.62657,480.09169 L 526.50027,485.94234 L 521.84401,487.63662 L 516.79882,490.53251 L 507.6481,482.8362"
       />
    <path
       style="fill:none;stroke:#ffffff;stroke-width:0.5;"
       d="M 495.86197,461.6675 L 505.41965,460.57637 L 510.82538,458.36113 L 511.37848,458.04657 L 511.54639,458.90466 L 512.27645,459.94299 L 514.23749,460.97626 L 516.24928,461.67729 L 518.44285,465.49994 L 518.8509,468.83528 L 519.0787,469.34757 L 519.52415,469.6599 L 520.6354,469.92288 L 519.09583,471.92463 L 518.43215,471.42172 L 517.56035,471.60995 L 517.40444,471.70379 L 515.23246,473.69664 L 515.1036,473.89346 L 515.03616,474.29722 L 515.07099,475.30002 L 516.29486,476.59068 L 516.61708,477.56469 L 507.6481,482.8362 L 500.07613,481.69649 L 496.95502,473.26982 L 495.2368,469.92549 L 495.15002,468.81276 L 495.12926,464.99387 L 495.86197,461.6675"
       />
    <path
       style="fill:none;stroke:#ffffff;stroke-width:0.5;"
       d="M 514.50714,447.57009 L 523.53739,446.82268 L 525.84892,464.83512 L 525.19092,465.4454 L 523.68583,466.28028 L 520.6354,469.92288 L 519.52415,469.6599 L 519.0787,469.34757 L 518.8509,468.83528 L 518.44285,465.49994 L 516.24928,461.67729 L 514.23749,460.97626 L 512.27645,459.94299 L 511.54639,458.90466 L 511.37848,458.04657 L 513.26316,454.16336 L 512.1156,453.41677 L 512.88629,450.92785 L 514.21451,447.89288 L 514.50714,447.57009"
 />
    <path
       style="fill:none;stroke:#ffffff;stroke-width:0.5;"
       d="M 484.01022,432.961 L 498.30565,431.92121 L 500.69267,448.22698 L 497.45319,453.71245 L 476.52788,452.99884 L 474.37303,452.85746 L 471.17774,433.82713 L 484.01022,432.961"
 />
    <path
       style="fill:none;stroke:#ffffff;stroke-width:0.5;"
       d="M 499.72749,431.80849 L 521.35076,429.9979 L 523.53739,446.82268 L 514.50714,447.57009 L 509.34998,447.90972 L 500.75435,448.62917 L 500.69267,448.22698 L 498.30565,431.92121 L 499.72749,431.80849"
 />
    <path
       style="fill:none;stroke:#ffffff;stroke-width:0.5;"
       d="M 521.35076,429.9979 L 525.64779,429.61596 L 526.28394,429.85006 L 528.15199,431.5674 L 528.6947,432.235 L 529.48347,434.71389 L 533.66912,435.97503 L 537.91776,446.65593 L 534.36213,454.02664 L 530.14104,461.21837 L 528.815,465.50604 L 523.68583,466.28028 L 525.19092,465.4454 L 525.84892,464.83512 L 523.53739,446.82268 L 521.35076,429.9979"
 />
    <path
       style="fill:none;stroke:#ffffff;stroke-width:0.5;"
       d="M 537.91776,446.65593 L 538.57271,448.91844 L 539.88062,450.58106 L 540.80988,451.73011 L 544.27743,454.14621 L 544.84587,454.50408 L 547.61061,454.71403 L 549.16486,454.74385 L 551.58813,457.82294 L 549.33342,459.03881 L 548.21696,459.97231 L 547.16026,461.57668 L 546.9147,462.07505 L 546.2545,463.83063 L 546.10606,464.45956 L 546.23155,464.62698 L 546.19649,465.40332 L 545.80294,466.78115 L 544.54302,468.92625 L 542.89688,470.70045 L 542.3354,471.30491 L 541.06592,471.88691 L 536.26523,469.10153 L 536.87768,464.1571 L 528.815,465.50604 L 530.14104,461.21837 L 534.36213,454.02664 L 537.91776,446.65593"
/>
    <path
       style="fill:none;stroke:#ffffff;stroke-width:0.5;"
       d="M 528.815,465.50604 L 536.87768,464.1571 L 536.26523,469.10153 L 541.06592,471.88691 L 542.3354,471.30491 L 542.89688,470.70045 L 543.06076,470.96865 L 538.33049,477.57451 L 526.50027,485.94234 L 522.62657,480.09169 L 525.01606,477.8436 L 520.15665,472.46097 L 519.09583,471.92463 L 520.6354,469.92288 L 523.68583,466.28028 L 528.815,465.50604"
/>
    <path
       style="fill:none;stroke:#ffffff;stroke-width:0.5;"
       d="M 538.33049,477.57451 L 541.13467,481.91154 L 541.21462,482.20193 L 541.16059,482.47484 L 539.51751,485.91809 L 538.6749,486.81368 L 538.13666,486.81708 L 537.62174,486.69828 L 537.33655,486.73839 L 536.56051,488.05524 L 536.55476,490.92031 L 536.9817,494.36495 L 537.15816,494.81897 L 532.60666,498.64498 L 530.22583,496.17185 L 526.8939,493.47877 L 522.63249,490.00497 L 522.24818,489.36541 L 521.84401,487.63662 L 526.50027,485.94234 L 538.33049,477.57451"
  />
    <path
       style="fill:none;stroke:#ffffff;stroke-width:0.5;"
       d="M 521.84401,487.63662 L 522.24818,489.36541 L 522.63249,490.00497 L 526.8939,493.47877 L 530.22583,496.17185 L 532.60666,498.64498 L 527.76795,504.69887 L 526.03355,503.48153 L 512.28772,493.68232 L 516.79882,490.53251 L 521.84401,487.63662"
    />
    <path
       style="fill:none;stroke:#ffffff;stroke-width:0.5;"
       d="M 533.64366,520.97392 L 536.99259,524.94744 L 539.80393,529.96317 L 532.75603,533.64005 L 526.14118,532.53322 L 533.64366,520.97392"
        />
    <path
       style="fill:none;stroke:#ffffff;stroke-width:0.5;"
       d="M 527.76795,504.69887 L 545.6324,516.49822 L 541.50723,519.99313 L 539.69145,518.41153 L 537.28205,521.23534 L 538.95278,522.91219 L 536.99259,524.94744 L 533.64366,520.97392 L 529.86023,519.56639 L 526.76833,516.38896 L 526.46275,515.85177 L 526.36625,515.68814 L 522.93782,513.73391 L 520.91651,513.69838 L 526.03355,503.48153 L 527.76795,504.69887"
/>
    <path
       style="fill:none;stroke:#ffffff;stroke-width:0.5;"
       d="M 520.91651,513.69838 L 522.93782,513.73391 L 526.36625,515.68814 L 526.46275,515.85177 L 526.76833,516.38896 L 529.86023,519.56639 L 533.64366,520.97392 L 526.14118,532.53322 L 519.69372,538.57967 L 507.2401,539.59104 L 509.63889,537.21524 L 510.25871,536.05113 L 511.08508,534.06674 L 511.77057,531.58143 L 511.47785,530.2687 L 511.40727,529.42699 L 511.43245,528.21838 L 512.64097,520.74012 L 515.02217,519.17608 L 520.91651,513.69838"
 />
  </g>
</svg>
